<?xml version="1.0" standalone="no"?>
<!DOCTYPE svg PUBLIC "-//W3C//DTD SVG 20010904//EN"
 "http://www.w3.org/TR/2001/REC-SVG-20010904/DTD/svg10.dtd">
<svg version="1.0" xmlns="http://www.w3.org/2000/svg"
 width="66.000000pt" height="65.000000pt" viewBox="0 0 66.000000 65.000000"
 preserveAspectRatio="xMidYMid meet">

<g transform="translate(0.000000,65.000000) scale(0.100000,-0.100000)"
fill="#000000" stroke="none">
<path d="M268 541 c-69 -22 -132 -84 -152 -149 -17 -51 -8 -132 19 -177 26
-46 70 -83 82 -71 4 3 21 39 38 79 l32 72 44 3 44 3 34 -81 c19 -44 37 -80 41
-80 4 0 19 9 34 21 33 26 61 81 70 137 l6 42 -65 0 c-36 0 -65 -4 -65 -8 0
-16 24 -32 48 -32 21 0 23 -3 17 -27 -3 -16 -12 -34 -20 -42 -11 -11 -20 1
-54 75 -23 49 -52 112 -65 139 l-23 50 -36 -77 c-20 -44 -42 -78 -50 -78 -10
0 -13 -8 -10 -24 3 -13 -5 -42 -17 -66 -20 -39 -23 -41 -35 -24 -25 37 -35 96
-24 139 16 57 43 90 92 114 54 26 99 26 156 1 33 -15 47 -18 57 -9 21 17 18
23 -26 48 -44 25 -129 35 -172 22z m81 -193 c1 -5 -8 -8 -19 -8 -23 0 -24 4
-8 33 11 21 11 21 19 2 4 -11 8 -23 8 -27z"/>
<path d="M245 149 c-4 -11 -4 -23 -1 -28 9 -14 81 -24 124 -16 55 9 66 18 53
42 -9 18 -14 19 -51 10 -28 -8 -52 -8 -80 -1 -35 10 -40 9 -45 -7z"/>
</g>
</svg>
