<?xml version="1.0" standalone="no"?>
<!DOCTYPE svg PUBLIC "-//W3C//DTD SVG 20010904//EN"
 "http://www.w3.org/TR/2001/REC-SVG-20010904/DTD/svg10.dtd">
<svg version="1.0" xmlns="http://www.w3.org/2000/svg"
 width="66.000000pt" height="65.000000pt" viewBox="0 0 66.000000 65.000000"
 preserveAspectRatio="xMidYMid meet">

<g transform="translate(0.000000,65.000000) scale(0.100000,-0.100000)"
fill="#000000" stroke="none">
<path d="M234 636 c-54 -17 -127 -68 -159 -111 -96 -124 -85 -316 24 -425 72
-71 129 -95 231 -95 73 0 93 4 142 28 193 95 244 348 102 506 -61 68 -135 103
-227 107 -43 2 -89 -2 -113 -10z m194 -111 c55 -25 61 -35 37 -55 -12 -10 -23
-8 -58 9 -55 27 -99 27 -154 0 -56 -27 -93 -87 -93 -153 0 -46 22 -106 39
-106 13 0 42 85 35 104 -4 11 -1 16 10 16 10 0 29 29 52 78 l36 77 67 -140 68
-140 16 32 c23 44 21 53 -12 53 -24 0 -41 14 -41 36 0 2 29 4 65 4 73 0 73 0
54 -75 -11 -45 -71 -125 -93 -125 -7 0 -29 36 -49 80 l-36 80 -40 0 c-39 0
-41 -2 -61 -47 -11 -27 -29 -65 -38 -87 l-17 -39 -33 28 c-62 52 -89 130 -72
210 15 74 59 131 123 161 67 31 127 31 195 -1z m-56 -368 c24 6 43 11 44 10 1
-1 4 -12 8 -24 6 -18 1 -23 -30 -33 -40 -14 -129 -9 -146 8 -5 5 -7 19 -4 30
6 17 10 18 46 8 29 -7 52 -7 82 1z"/>
<path d="M317 360 c-4 -15 0 -20 14 -20 21 0 22 1 13 24 -8 22 -21 20 -27 -4z"/>
</g>
</svg>
