<?xml version="1.0" standalone="no"?>
<!DOCTYPE svg PUBLIC "-//W3C//DTD SVG 20010904//EN"
 "http://www.w3.org/TR/2001/REC-SVG-20010904/DTD/svg10.dtd">
<svg version="1.0" xmlns="http://www.w3.org/2000/svg"
 width="67.000000pt" height="67.000000pt" viewBox="0 0 67.000000 67.000000"
 preserveAspectRatio="xMidYMid meet">

<g transform="translate(0.000000,67.000000) scale(0.100000,-0.100000)"
fill="#000000" stroke="none">
<path d="M12 658 c-19 -19 -17 -621 2 -637 9 -8 104 -11 327 -9 l314 3 3 314
c2 223 -1 318 -9 327 -16 19 -618 21 -637 2z m398 -79 c21 -6 51 -22 66 -34
28 -23 29 -23 10 -44 l-19 -20 -30 21 c-45 32 -140 37 -193 10 -44 -22 -65
-43 -86 -87 -32 -65 -29 -136 8 -193 l18 -27 23 50 c15 33 21 60 17 78 -4 22
-2 27 13 27 14 0 29 22 56 82 22 49 41 78 46 72 5 -5 39 -75 77 -156 59 -130
69 -146 80 -130 7 10 16 31 19 45 6 24 4 27 -18 27 -23 0 -57 31 -57 52 0 5
34 8 76 8 l77 0 -7 -52 c-4 -28 -14 -65 -23 -82 -15 -32 -82 -106 -94 -106 -3
0 -24 40 -45 90 l-39 90 -51 0 -51 0 -39 -90 c-22 -49 -42 -90 -46 -90 -16 0
-88 81 -104 117 -35 82 -10 208 54 277 61 65 171 92 262 65z m-27 -432 c44 12
57 6 57 -29 0 -33 -152 -48 -199 -19 -9 6 -11 18 -8 33 6 24 8 24 57 14 36 -7
63 -7 93 1z"/>
<path d="M322 385 c-10 -22 -9 -25 8 -25 21 0 26 16 12 38 -6 9 -12 6 -20 -13z"/>
</g>
</svg>
